<svg xmlns="http://www.w3.org/2000/svg" fill="none" viewBox="0 0 20 20" height="20" width="20">
<path fill="#EF7F1A" d="M16.9459 9.80549L14.7785 9.00618C13.0238 8.35909 11.6405 6.97596 10.9936 5.22134L10.1941 3.05381C10.1641 2.97233 10.0864 2.91821 9.99955 2.91821C9.91269 2.91821 9.83499 2.97233 9.80494 3.05381L9.00552 5.22122C8.35843 6.97596 6.9752 8.35909 5.22059 9.00618L3.05308 9.80549C2.9716 9.83554 2.91748 9.91324 2.91748 10.0001C2.91748 10.087 2.9716 10.1646 3.05308 10.1947L5.22071 10.9943C6.97532 11.6413 8.35843 13.0245 9.00552 14.7791L9.80494 16.9467C9.83499 17.0282 9.91269 17.0823 9.99955 17.0823C10.0864 17.0823 10.1641 17.0282 10.1941 16.9467L10.9936 14.7791C11.6407 13.0245 13.0238 11.6412 14.7784 10.9943L16.946 10.1947C17.0275 10.1646 17.0816 10.087 17.0816 10.0001C17.0816 9.91324 17.0274 9.83554 16.9459 9.80549Z"></path>
<path fill="#EF7F1A" d="M16.9459 9.80549L14.7785 9.00618C13.0238 8.35909 11.6405 6.97596 10.9936 5.22134L10.1941 3.05381C10.1641 2.97233 10.0864 2.91821 9.99955 2.91821C9.91269 2.91821 9.83499 2.97233 9.80494 3.05381L9.00552 5.22122C8.35843 6.97596 6.9752 8.35909 5.22059 9.00618L3.05308 9.80549C2.9716 9.83554 2.91748 9.91324 2.91748 10.0001C2.91748 10.087 2.9716 10.1646 3.05308 10.1947L5.22071 10.9943C6.97532 11.6413 8.35843 13.0245 9.00552 14.7791L9.80494 16.9467C9.83499 17.0282 9.91269 17.0823 9.99955 17.0823C10.0864 17.0823 10.1641 17.0282 10.1941 16.9467L10.9936 14.7791C11.6407 13.0245 13.0238 11.6412 14.7784 10.9943L16.946 10.1947C17.0275 10.1646 17.0816 10.087 17.0816 10.0001C17.0816 9.91324 17.0274 9.83554 16.9459 9.80549Z"></path>
<path fill="#EF7F1A" d="M16.9459 9.80549L14.7785 9.00618C13.0238 8.35909 11.6405 6.97596 10.9936 5.22134L10.1941 3.05381C10.1641 2.97233 10.0864 2.91821 9.99955 2.91821C9.91269 2.91821 9.83499 2.97233 9.80494 3.05381L9.00552 5.22122C8.35843 6.97596 6.9752 8.35909 5.22059 9.00618L3.05308 9.80549C2.9716 9.83554 2.91748 9.91324 2.91748 10.0001C2.91748 10.087 2.9716 10.1646 3.05308 10.1947L5.22071 10.9943C6.97532 11.6413 8.35843 13.0245 9.00552 14.7791L9.80494 16.9467C9.83499 17.0282 9.91269 17.0823 9.99955 17.0823C10.0864 17.0823 10.1641 17.0282 10.1941 16.9467L10.9936 14.7791C11.6407 13.0245 13.0238 11.6412 14.7784 10.9943L16.946 10.1947C17.0275 10.1646 17.0816 10.087 17.0816 10.0001C17.0816 9.91324 17.0274 9.83554 16.9459 9.80549Z"></path>
<path fill="#EF7F1A" d="M15.3065 14.4853L14.2238 12.4447C13.3472 10.7927 13.2381 8.83958 13.9255 7.10041L14.7746 4.95182C14.8065 4.87105 14.7846 4.77892 14.7199 4.72102C14.6552 4.66312 14.5612 4.65166 14.4844 4.69237L12.4437 5.77505C10.7917 6.65168 8.83857 6.76057 7.09932 6.07327L4.95083 5.22418C4.87006 5.19226 4.77792 5.2141 4.72002 5.27885C4.66212 5.34359 4.65067 5.43758 4.69137 5.5143L5.77413 7.55527C6.65066 9.20726 6.75962 11.1602 6.0723 12.8995L5.2232 15.0482C5.19129 15.129 5.21313 15.2211 5.27787 15.279C5.34261 15.3369 5.4366 15.3483 5.51332 15.3076L7.5542 14.2248C9.2062 13.3482 11.1593 13.2392 12.8984 13.9266L15.0472 14.7755C15.128 14.8075 15.2201 14.7856 15.278 14.7209C15.3359 14.6561 15.3473 14.5621 15.3065 14.4853Z"></path>
<path fill="#EF7F1A" d="M15.3065 14.4853L14.2238 12.4447C13.3472 10.7927 13.2381 8.83958 13.9255 7.10041L14.7746 4.95182C14.8065 4.87105 14.7846 4.77892 14.7199 4.72102C14.6552 4.66312 14.5612 4.65166 14.4844 4.69237L12.4437 5.77505C10.7917 6.65168 8.83857 6.76057 7.09932 6.07327L4.95083 5.22418C4.87006 5.19226 4.77792 5.2141 4.72002 5.27885C4.66212 5.34359 4.65067 5.43758 4.69137 5.5143L5.77413 7.55527C6.65066 9.20726 6.75962 11.1602 6.0723 12.8995L5.2232 15.0482C5.19129 15.129 5.21313 15.2211 5.27787 15.279C5.34261 15.3369 5.4366 15.3483 5.51332 15.3076L7.5542 14.2248C9.2062 13.3482 11.1593 13.2392 12.8984 13.9266L15.0472 14.7755C15.128 14.8075 15.2201 14.7856 15.278 14.7209C15.3359 14.6561 15.3473 14.5621 15.3065 14.4853Z"></path>
<path fill="#EF7F1A" d="M15.3065 14.4853L14.2238 12.4447C13.3472 10.7927 13.2381 8.83958 13.9255 7.10041L14.7746 4.95182C14.8065 4.87105 14.7846 4.77892 14.7199 4.72102C14.6552 4.66312 14.5612 4.65166 14.4844 4.69237L12.4437 5.77505C10.7917 6.65168 8.83857 6.76057 7.09932 6.07327L4.95083 5.22418C4.87006 5.19226 4.77792 5.2141 4.72002 5.27885C4.66212 5.34359 4.65067 5.43758 4.69137 5.5143L5.77413 7.55527C6.65066 9.20726 6.75962 11.1602 6.0723 12.8995L5.2232 15.0482C5.19129 15.129 5.21313 15.2211 5.27787 15.279C5.34261 15.3369 5.4366 15.3483 5.51332 15.3076L7.5542 14.2248C9.2062 13.3482 11.1593 13.2392 12.8984 13.9266L15.0472 14.7755C15.128 14.8075 15.2201 14.7856 15.278 14.7209C15.3359 14.6561 15.3473 14.5621 15.3065 14.4853Z"></path>
</svg>
